<?xml version="1.0" encoding="UTF-8"?>
<svg width="153px" height="224px" viewBox="0 0 153 224" version="1.1" xmlns="http://www.w3.org/2000/svg" xmlns:xlink="http://www.w3.org/1999/xlink">
    <!-- Generator: Sketch 52.2 (67145) - http://www.bohemiancoding.com/sketch -->
    <title>organization</title>
    <desc>Created with Sketch.</desc>
    <g id="Program-Create_step" stroke="none" stroke-width="1" fill="none" fill-rule="evenodd">
        <g id="TM.04.01-Program-List-none" transform="translate(0.000000, -83.000000)">
            <rect fill="#F0F4F7" x="0" y="0" width="1440" height="900"></rect>
            <g id="Group-20" transform="translate(0.000000, 59.000000)" fill="#B0B0B0">
                <g id="Group-7" transform="translate(30.000000, 124.000000)">
                    <g id="organization-grey">
                        <path d="M21.7048745,21.7048294 L15.3519137,21.7048294 L15.3519137,20.4998098 C15.3519137,19.6348294 16.0558941,18.9313 16.9208745,18.9313 L18.0983843,18.9313 L18.0983843,20.6937314 C18.0983843,20.9372608 18.2959137,21.1347902 18.5394431,21.1347902 C18.7829725,21.1347902 18.9809529,20.9372608 18.9809529,20.6937314 L18.9809529,18.9313 L20.1359137,18.9313 C21.0008941,18.9313 21.7048745,19.6348294 21.7048745,20.4998098 L21.7048745,21.7048294 Z M17.3619333,16.4802216 C17.3619333,15.8371235 17.8850706,15.3135353 18.5286196,15.3135353 C19.1717176,15.3135353 19.6948549,15.8371235 19.6948549,16.4802216 L19.6948549,16.8820451 C19.6948549,17.5251431 19.1717176,18.0487314 18.5286196,18.0487314 C17.8850706,18.0487314 17.3619333,17.5251431 17.3619333,16.8820451 L17.3619333,16.4802216 Z M14.4697961,21.7048294 L8.11728627,21.7048294 L8.11728627,20.4998098 C8.11728627,19.6348294 8.82081569,18.9313 9.68579608,18.9313 L10.8578941,18.9313 L10.8578941,20.6937314 C10.8578941,20.9372608 11.0554235,21.1347902 11.2994039,21.1347902 C11.5429333,21.1347902 11.7400118,20.9372608 11.7400118,20.6937314 L11.7400118,18.9313 L12.9012863,18.9313 C13.7658157,18.9313 14.4697961,19.6348294 14.4697961,20.4998098 L14.4697961,21.7048294 Z M10.1268549,16.4802216 C10.1268549,15.8371235 10.6499922,15.3135353 11.2935412,15.3135353 C11.9366392,15.3135353 12.4602275,15.8371235 12.4602275,16.4802216 L12.4602275,16.8820451 C12.4602275,17.5251431 11.9366392,18.0487314 11.2935412,18.0487314 C10.6499922,18.0487314 10.1268549,17.5251431 10.1268549,16.8820451 L10.1268549,16.4802216 Z M7.23471765,21.7048294 L0.882207843,21.7048294 L0.882207843,20.4998098 C0.882207843,19.6348294 1.58618824,18.9313 2.45116863,18.9313 L3.6178549,18.9313 L3.6178549,20.6937314 C3.6178549,20.9372608 3.81493333,21.1347902 4.05846275,21.1347902 C4.30199216,21.1347902 4.49997255,20.9372608 4.49997255,20.6937314 L4.49997255,18.9313 L5.66665882,18.9313 C6.53118824,18.9313 7.23471765,19.6348294 7.23471765,20.4998098 L7.23471765,21.7048294 Z M2.89177647,16.4802216 C2.89177647,15.8371235 3.41536471,15.3135353 4.05846275,15.3135353 C4.70201176,15.3135353 5.22514902,15.8371235 5.22514902,16.4802216 L5.22514902,16.8820451 C5.22514902,17.5251431 4.70201176,18.0487314 4.05846275,18.0487314 C3.41536471,18.0487314 2.89177647,17.5251431 2.89177647,16.8820451 L2.89177647,16.4802216 Z M20.2103255,18.0505353 C20.4412275,17.7190647 20.5774235,17.3163392 20.5774235,16.8820451 L20.5774235,16.4802216 C20.5774235,15.3505157 19.6583255,14.4314176 18.5286196,14.4314176 C17.3984627,14.4314176 16.4793647,15.3505157 16.4793647,16.4802216 L16.4793647,16.8820451 C16.4793647,17.3163392 16.6155608,17.7190647 16.8469137,18.0505353 C16.0459725,18.0744373 15.3410902,18.4839275 14.9113059,19.0995157 C14.4806196,18.4839275 13.7757373,18.0744373 12.9752471,18.0505353 C13.206149,17.7190647 13.3423451,17.3163392 13.3423451,16.8820451 L13.3423451,16.4802216 C13.3423451,15.3505157 12.4232471,14.4314176 11.2935412,14.4314176 C10.1638353,14.4314176 9.24473725,15.3505157 9.24473725,16.4802216 L9.24473725,16.8820451 C9.24473725,17.3163392 9.38093333,17.7190647 9.61228627,18.0505353 C8.8113451,18.0744373 8.10646275,18.4839275 7.67622745,19.0995157 C7.24554118,18.4839275 6.54065882,18.0744373 5.74061961,18.0505353 C5.97107059,17.7190647 6.10726667,17.3163392 6.10726667,16.8820451 L6.10726667,16.4802216 C6.10726667,15.3505157 5.18816863,14.4314176 4.05846275,14.4314176 C2.92875686,14.4314176 2.00965882,15.3505157 2.00965882,16.4802216 L2.00965882,16.8820451 C2.00965882,17.3163392 2.1458549,17.7190647 2.37720784,18.0505353 C1.05989412,18.0897706 9.01960784e-05,19.1730255 9.01960784e-05,20.4998098 L9.01960784e-05,22.1458882 C9.01960784e-05,22.3894176 0.197619608,22.5869471 0.44114902,22.5869471 L7.67622745,22.5869471 L14.9113059,22.5869471 L22.1459333,22.5869471 C22.3894627,22.5869471 22.5869922,22.3894176 22.5869922,22.1458882 L22.5869922,20.4998098 C22.5869922,19.1730255 21.5271882,18.0897706 20.2103255,18.0505353 Z" id="Fill-1"></path>
                        <path d="M11.2935412,8.42598235 C11.1771882,8.42598235 11.0635412,8.47288431 10.9819137,8.55541373 C10.8993843,8.63749216 10.8520314,8.75113922 10.8520314,8.86749216 C10.8520314,8.98294314 10.8993843,9.09704118 10.9819137,9.17911961 C11.0635412,9.26119804 11.1771882,9.30855098 11.2935412,9.30855098 C11.4094431,9.30855098 11.5235412,9.26119804 11.6051686,9.17911961 C11.6872471,9.09704118 11.735051,8.98294314 11.735051,8.86749216 C11.735051,8.75113922 11.6872471,8.63749216 11.6051686,8.55541373 C11.5235412,8.47288431 11.4094431,8.42598235 11.2935412,8.42598235" id="Fill-4"></path>
                        <path d="M6.76835882,9.97009412 L6.76835882,9.08887843 C6.76835882,7.77562353 7.83718235,6.7068 9.15043725,6.7068 L10.8524373,6.7068 L10.8524373,7.19070196 C10.8524373,7.43423137 11.0499667,7.63176078 11.2934961,7.63176078 C11.5370255,7.63176078 11.7350059,7.43423137 11.7350059,7.19070196 L11.7350059,6.7068 L13.4365549,6.7068 C14.7498098,6.7068 15.8186333,7.77562353 15.8186333,9.08887843 L15.8186333,9.97009412 L6.76835882,9.97009412 Z M9.5495549,3.59368235 L10.1768686,3.59368235 C10.8925745,3.59368235 11.5726529,3.32670196 12.0935353,2.85001569 L13.0374373,3.40472157 L13.0374373,4.0802902 C13.0374373,5.04223137 12.2549863,5.82468235 11.2934961,5.82468235 C10.3315549,5.82468235 9.5495549,5.04223137 9.5495549,4.0802902 L9.5495549,3.59368235 Z M9.5495549,2.62632941 C9.5495549,1.66483922 10.3315549,0.882388235 11.2934961,0.882388235 C12.168398,0.882388235 12.8949275,1.5295451 13.0184961,2.37062353 L12.2405549,1.91332941 C12.054751,1.80419216 11.8170843,1.84523137 11.6790843,2.0102902 C11.3056725,2.45585882 10.7581824,2.71111373 10.1768686,2.71111373 L9.5495549,2.71111373 L9.5495549,2.62632941 Z M4.05841765,13.8110941 C4.30194706,13.8110941 4.49992745,13.6135647 4.49992745,13.3695843 L4.49992745,12.7936824 L10.8524373,12.7936824 L10.8524373,13.3695843 C10.8524373,13.6135647 11.0499667,13.8110941 11.2934961,13.8110941 C11.5370255,13.8110941 11.7350059,13.6135647 11.7350059,13.3695843 L11.7350059,12.7936824 L13.2381235,12.7936824 C13.4816529,12.7936824 13.6791824,12.595702 13.6791824,12.3521725 C13.6791824,12.1086431 13.4816529,11.9111137 13.2381235,11.9111137 L11.7350059,11.9111137 L11.7350059,10.8526627 L16.2596922,10.8526627 C16.5036725,10.8526627 16.700751,10.6551333 16.700751,10.4111529 L16.700751,9.08887843 C16.700751,7.28901569 15.2364176,5.82468235 13.4365549,5.82468235 L13.2548098,5.82468235 C13.6683588,5.36017255 13.9195549,4.7495451 13.9195549,4.0802902 L13.9195549,2.72283922 L13.9195549,2.62632941 C13.9195549,1.17823137 12.7415941,0.000270588235 11.2934961,0.000270588235 C9.84539804,0.000270588235 8.66698627,1.17823137 8.66698627,2.62632941 L8.66698627,4.0802902 C8.66698627,4.7495451 8.91908431,5.36017255 9.33218235,5.82468235 L9.15043725,5.82468235 C7.35057451,5.82468235 5.88624118,7.28901569 5.88624118,9.08887843 L5.88624118,10.4111529 C5.88624118,10.6551333 6.08331961,10.8526627 6.32684902,10.8526627 L10.8524373,10.8526627 L10.8524373,11.9111137 L4.05841765,11.9111137 C3.81488824,11.9111137 3.6178098,12.1086431 3.6178098,12.3521725 L3.6178098,13.3695843 C3.6178098,13.6135647 3.81488824,13.8110941 4.05841765,13.8110941 Z" id="Fill-6"></path>
                        <path d="M14.5142627,12.0404549 C14.4317333,12.1225333 14.3852824,12.2361804 14.3852824,12.3520824 C14.3852824,12.4684353 14.4317333,12.5820824 14.5142627,12.6641608 C14.5967922,12.7462392 14.7099882,12.7935922 14.8254392,12.7935922 C14.9422431,12.7935922 15.0554392,12.7462392 15.1384196,12.6641608 C15.2200471,12.5820824 15.2674,12.4684353 15.2674,12.3520824 C15.2674,12.2361804 15.2200471,12.1225333 15.1384196,12.0404549 C15.0558902,11.9583765 14.9422431,11.9110235 14.8254392,11.9110235 C14.7099882,11.9110235 14.5958902,11.9583765 14.5142627,12.0404549" id="Fill-8"></path>
                        <path d="M15.8187686,12.3522627 C15.8187686,12.5957922 16.0158471,12.7937725 16.2598275,12.7937725 L18.0984745,12.7937725 L18.0984745,13.3696745 C18.0984745,13.6132039 18.2960039,13.8107333 18.5395333,13.8107333 C18.7830627,13.8107333 18.9810431,13.6132039 18.9810431,13.3696745 L18.9810431,12.3522627 C18.9810431,12.1087333 18.7830627,11.9112039 18.5395333,11.9112039 L16.2598275,11.9112039 C16.0158471,11.9112039 15.8187686,12.1087333 15.8187686,12.3522627" id="Fill-10"></path>
                    </g>
                </g>
            </g>
        </g>
    </g>
</svg>